<?xml version="1.0" encoding="utf-8"?>
<!-- Generator: Adobe Illustrator 18.0.0, SVG Export Plug-In . SVG Version: 6.00 Build 0)  -->
<!DOCTYPE svg PUBLIC "-//W3C//DTD SVG 1.1//EN" "http://www.w3.org/Graphics/SVG/1.1/DTD/svg11.dtd">
<svg version="1.1" xmlns="http://www.w3.org/2000/svg" xmlns:xlink="http://www.w3.org/1999/xlink" x="0px" y="0px"
	 viewBox="0 0 64 48" enable-background="new 0 0 64 48" xml:space="preserve">
<g id="Layer_1" display="none">
	<g id="XMLID_1_" display="inline">
		<path id="XMLID_3_" fill="#FFFFFF" d="M22.4,29.8L8.2,47.2c-0.4,0.4,0.2,1,0.7,0.7l17.3-14.3c0.2-0.2,0.2-0.4,0.1-0.6
			c-1.1-1.8-1.3-1.9-3.1-3.3C22.9,29.5,22.6,29.6,22.4,29.8z"/>
		<path id="XMLID_5_" fill="#FF5826" d="M55.4,26.3L40.1,16L30.6,0.7c-0.3-0.6-1.1-0.6-1.6-0.2L13.2,16.8c-0.4,0.4-0.4,1.1,0.1,1.5
			l13.3,10.9c0,0,0.3,0.2,0.3,0.3L37.2,43c0.4,0.5,1,0.5,1.5,0.1l16.8-15.3C56,27.4,55.9,26.6,55.4,26.3z"/>
		<path id="XMLID_7_" fill="#FFFFFF" d="M51.9,22.9L51.9,22.9c-0.3-0.2-0.3-0.6-0.1-0.8l0,0c0.3-0.2,0.2-0.6-0.1-0.8l-0.1-0.1
			c-0.3-0.2-0.3-0.6-0.1-0.8l0.1-0.1c0.3-0.2,0.2-0.7-0.1-0.8c-2.1-1-8.4-3.8-11.3-3.5c-0.1,0-0.1-0.1-0.1-0.2c0.4-2.9-2-9-2.9-11.2
			c-0.1-0.3-0.6-0.4-0.8-0.2l-0.1,0.1c-0.2,0.3-0.7,0.2-0.8-0.1l-0.1-0.1C35.2,4,34.8,4,34.6,4.2l0,0c-0.2,0.2-0.6,0.2-0.8-0.1l0,0
			c-0.2-0.3-0.6-0.3-0.8-0.1L19.8,17.9c-0.1,0.2-0.1,0.4,0.1,0.5c1.1,0.8,6.4,6.6,7.2,7.4c0.1,0.1,0.2,0.1,0.3,0l11-8.5
			c0.2-0.1,0.5,0,0.4,0.3l-8.6,10.9c-0.1,0.1,0,0.2,0,0.2c0.8,0.9,6.3,6.4,7.1,7.6c0.1,0.2,0.4,0.2,0.5,0.1L52,23.7
			C52.3,23.5,52.2,23.1,51.9,22.9z"/>
		<path id="XMLID_4_" fill="#FFFFFF" stroke="#222221" stroke-width="0.25" stroke-miterlimit="10" d="M56,0"/>
	</g>
	<path id="XMLID_11_" display="inline" fill="#FF5826" d="M75.2,97.6L59.9,87.3l-9.5-15.3c-0.3-0.6-1.1-0.6-1.6-0.2L33,88.2
		c-0.4,0.4-0.4,1.1,0.1,1.5l13.3,10.9c0,0,0.3,0.2,0.3,0.3l10.3,13.5c0.4,0.5,1,0.5,1.5,0.1l16.8-15.3C75.8,98.8,75.7,98,75.2,97.6z
		"/>
	<path id="XMLID_10_" display="inline" fill="#FFFFFF" d="M55.6,81.8L55.6,81.8c-0.3-0.2-0.3-0.6-0.1-0.8l0,0
		c0.3-0.2,0.2-0.6-0.1-0.8l-0.1-0.1c-0.3-0.2-0.3-0.6-0.1-0.8l0.1-0.1c0.3-0.2,0.2-0.7-0.1-0.8c-2.1-1-8.4-3.8-11.3-3.5
		c-0.1,0-0.1-0.1-0.1-0.2c0.4-2.9-2-9-2.9-11.2c-0.1-0.3-0.6-0.4-0.8-0.2l-0.1,0.1c-0.2,0.3-0.7,0.2-0.8-0.1L39,63.2
		c-0.2-0.3-0.6-0.3-0.8-0.1l0,0c-0.2,0.2-0.6,0.2-0.8-0.1l0,0c-0.2-0.3-0.6-0.3-0.8-0.1L23.4,76.8c-0.1,0.2-0.1,0.4,0.1,0.5
		c1.1,0.8,6.4,6.6,7.2,7.4c0.1,0.1,0.2,0.1,0.3,0l11-8.5c0.2-0.1,0.5,0,0.4,0.3l-8.6,10.9c-0.1,0.1,0,0.2,0,0.2
		c0.8,0.9,6.3,6.4,7.1,7.6c0.1,0.2,0.4,0.2,0.5,0.1l14.3-12.7C55.9,82.4,55.9,82,55.6,81.8z"/>
	<path id="XMLID_8_" display="inline" fill="#FFFFFF" stroke="#222221" stroke-width="0.25" stroke-miterlimit="10" d="M-7.7,52"/>
	<path id="XMLID_9_" display="inline" fill="#FFFFFF" stroke="#222221" stroke-width="0.25" stroke-miterlimit="10" d="M262.6-58.5"
		/>
	<g id="XMLID_52_" display="inline">
		<path id="XMLID_129_" fill="#13232F" d="M125.6,47.2l-14.3,17.5c-0.4,0.4,0.2,1,0.7,0.7l17.3-14.3c0.2-0.2,0.2-0.4,0.1-0.6
			c-1.1-1.8-1.3-1.9-3.1-3.3C126,47,125.8,47,125.6,47.2z"/>
		<path id="XMLID_55_" fill="#FF5826" d="M158.6,43.7l-15.3-10.3l-9.5-15.3c-0.3-0.6-1.1-0.6-1.6-0.2l-15.8,16.3
			c-0.4,0.4-0.4,1.1,0.1,1.5l13.3,10.9c0,0,0.3,0.2,0.3,0.3l10.4,13.6c0.4,0.5,1,0.5,1.5,0.1l16.8-15.3
			C159.2,44.9,159.2,44.1,158.6,43.7z"/>
		<path id="XMLID_54_" fill="#FFFFFF" d="M155.2,40.4L155.2,40.4c-0.3-0.2-0.3-0.6-0.1-0.8l0,0c0.3-0.2,0.2-0.6-0.1-0.8l-0.1-0.1
			c-0.3-0.2-0.3-0.6-0.1-0.8l0.1-0.1c0.3-0.2,0.2-0.7-0.1-0.8c-2.1-1-8.5-3.9-11.4-3.5c-0.1,0-0.1-0.1-0.1-0.2
			c0.4-2.9-2-9.1-2.9-11.2c-0.1-0.3-0.6-0.4-0.8-0.2l-0.1,0.1c-0.2,0.3-0.7,0.2-0.8-0.1l-0.1-0.1c-0.2-0.3-0.6-0.3-0.8-0.1l0,0
			c-0.2,0.2-0.6,0.2-0.8-0.1l0,0c-0.2-0.3-0.6-0.3-0.8-0.1L123,35.4c-0.1,0.2-0.1,0.4,0.1,0.5c1.1,0.8,6.4,6.6,7.3,7.5
			c0.1,0.1,0.2,0.1,0.3,0l11-8.6c0.2-0.1,0.5,0,0.4,0.3L133.3,46c-0.1,0.1,0,0.2,0,0.2c0.8,0.9,6.3,6.4,7.1,7.6
			c0.1,0.2,0.4,0.2,0.5,0.1l14.3-12.7C155.5,41,155.5,40.6,155.2,40.4z"/>
		<path id="XMLID_53_" fill="#FFFFFF" stroke="#222221" stroke-width="0.25" stroke-miterlimit="10" d="M159.2,17.5"/>
	</g>
</g>
<g id="Layer_2">
	<path id="XMLID_12_" fill="#FFFFFF" d="M26.4,34L8.9,47.9c-0.4,0.4-1.1-0.3-0.8-0.8L22,29.7c0.2-0.2,0.4-0.2,0.7,0
		c2,1.3,2.2,1.5,3.7,3.6C26.6,33.5,26.6,33.8,26.4,34z"/>
	<path fill="#FF5826" d="M54.6,28.1L28,1.4c-1.9-1.9-5.1-1.9-7,0l-9,9c-1.9,1.9-1.9,5.1,0,7l26.6,26.6c1.9,1.9,5.1,1.9,7,0l9-9
		C56.5,33.2,56.5,30,54.6,28.1z"/>
	<path fill="#13232F" stroke="#FFFFFF" stroke-miterlimit="10" d="M48.8,24.7L31.4,7.2c-1.7-1.7-4.6-1.7-6.3,0l-7.4,7.4
		c-1.7,1.7-1.7,4.6,0,6.3l17.4,17.4c1.7,1.7,4.6,1.7,6.3,0l7.4-7.4C50.5,29.2,50.5,26.4,48.8,24.7z"/>
	<ellipse transform="matrix(0.7065 0.7078 -0.7078 0.7065 40.58 -22.936)" fill="#FFFFFF" cx="47.9" cy="37.5" rx="1.5" ry="1.3"/>
	<path fill="#FFFFFF" d="M22,4.7L22,4.7c-0.2-0.2-0.6-0.2-0.9,0l-5.9,5.9c-0.2,0.2-0.2,0.6,0,0.8l0,0c0.2,0.2,0.6,0.2,0.9,0L22,5.5
		C22.2,5.3,22.2,4.9,22,4.7z"/>
	<path fill="#FFFFFF" d="M39.2,11.6l-2.4-2.4c-0.2-0.2-0.5-0.2-0.6,0v0c-0.2,0.2-0.2,0.5,0,0.6l2.4,2.4c0.2,0.2,0.5,0.2,0.6,0v0
		C39.3,12,39.3,11.7,39.2,11.6z"/>
	<path fill="#FFFFFF" d="M35.1,7.4l-3.2-3.2c-0.2-0.2-0.5-0.2-0.6,0v0c-0.2,0.2-0.2,0.5,0,0.6l3.2,3.2c0.2,0.2,0.5,0.2,0.6,0l0,0
		C35.2,7.9,35.2,7.6,35.1,7.4z"/>
</g>
</svg>
